<svg xmlns="http://www.w3.org/2000/svg" width="256" height="256"><path fill-opacity=".016" d="M0 128.004v128.004l128.25-.254 128.25-.254.254-127.75L257.008 0H0v128.004m.485.496c0 70.4.119 99.053.265 63.672.146-35.38.146-92.98 0-128C.604 29.153.485 58.1.485 128.5" fill="#1976D2" fill-rule="evenodd"/><path fill-opacity=".163" d="M24 128v128l77.25-.004c76.939-.003 77.237-.011 74.061-1.948-2.107-1.284-3.532-3.188-4.201-5.613-2.281-8.258 2.341-14.435 10.8-14.435 5.645 0 5.966.23 5.262 3.774l-.541 2.726-.605-2.5c-.471-1.946-1.34-2.571-3.925-2.822-6.543-.633-10.704 7.049-7.705 14.227 2.525 6.043 5.304 6.595 33.226 6.595H232V0l-51.25.136c-32.728.087-48.258.426-42.97.937 12.654 1.222 23.622 4.404 35.72 10.361 27.508 13.545 46.793 37.337 54.579 67.332 3.134 12.077 3.669 33.161 1.147 45.234-4.191 20.058-12.927 36.573-27.154 51.331-13.313 13.81-27.678 22.51-46.788 28.336-8.154 2.486-10.111 2.68-27.284 2.701-17.238.021-19.114-.161-27.5-2.674-38.74-11.609-66.098-41.398-74.046-80.627-2.538-12.521-1.634-35.512 1.85-47.067 5.501-18.245 14.245-32.913 27.171-45.581C72.825 13.418 94.17 3.336 117.5 1.124c6.229-.591-6.78-.895-42.25-.989L24 0v128M108.105 5.49c-14.508 3.275-27.843 9.216-39.091 17.414-6.895 5.025-19.123 17.488-23.733 24.187-5.067 7.365-10.981 19.882-13.92 29.46-2.535 8.261-2.751 10.294-2.804 26.449-.05 15.31.233 18.564 2.263 26 8.634 31.626 32.482 58.042 62.18 68.877 13.284 4.847 17.821 5.55 35.5 5.5 15.509-.043 17.789-.284 26-2.75 32.522-9.768 57.537-33.439 68.127-64.469 4.506-13.202 5.748-22.22 5.047-36.658-1.259-25.923-10.691-47.528-28.638-65.593C185.954 20.739 171.683 12.208 154 6.987c-9.78-2.888-35.956-3.742-45.895-1.497m21.357 34.01c-1.164 2.531-1.861 6.426-1.9 10.607l-.062 6.608-2.273-1.488c-1.25-.818-2.681-2.216-3.18-3.107-.756-1.352-1.102-1.123-2.091 1.38-1.909 4.835-1.739 16.446.299 20.412 2.175 4.232 1.63 4.929-1.765 2.259-1.438-1.131-4.274-2.59-6.302-3.24-2.029-.651-4.475-1.872-5.438-2.712-1.612-1.409-1.75-1.315-1.75 1.192 0 1.496.497 3.649 1.104 4.784 1.062 1.983.927 2.037-3.475 1.377-5.168-.775-11.689 1.516-15.034 5.283L85.69 85l3.405.035c1.873.02 4.53.679 5.905 1.465s3.524 1.445 4.776 1.465c2.197.034 2.223.137.75 2.985-.839 1.623-1.497 4.211-1.463 5.75.061 2.674.104 2.699.968.55.637-1.584 1.728-2.245 3.687-2.235 5.131.029 5.673 1.087 3.634 7.099-1.004 2.962-1.894 5.523-1.976 5.69-.083.167-1.664-.619-3.513-1.746-3.661-2.232-12.225-2.808-14.863-.999-1.283.88-1.175 1.257.75 2.607 2.977 2.088 2.846 3.334-.349 3.334-4.53 0-9.074 2.96-13.823 9.004l-4.606 5.863 2.236 1.566c3.043 2.132 9.386 1.934 14.651-.455 2.398-1.088 4.522-1.978 4.72-1.978.198 0-.751 1.638-2.109 3.64-1.359 2.001-2.47 4.992-2.47 6.646v3.006l2.415-2.606c2.615-2.822 4.157-3.312 12.682-4.035l5.598-.475-1.848 3.623c-1.711 3.356-2.544 9.201-1.312 9.201.295 0 1.712-.771 3.149-1.713 2.577-1.688 2.598-1.682 1.465.435-1.757 3.283-1.377 7.917 1.03 12.568l2.18 4.21.818-3.814c.45-2.097 2.031-5.403 3.513-7.346 2.691-3.528 2.696-3.53 3.607-1.186.88 2.261.943 2.274 1.738.346.453-1.1.856-4.971.895-8.602.056-5.287-.383-7.274-2.204-9.976-2.886-4.283-7.931-7.693-13.428-9.077-2.467-.621-4.298-1.671-4.298-2.464 0-2.099 3.625-1.662 10.022 1.209 4.63 2.078 6.179 2.373 7.831 1.489 2.721-1.457 4.183-6.985 3.108-11.752-.468-2.074-.763-3.813-.656-3.865.107-.052 1.952-.514 4.099-1.028 6.052-1.448 8.137-5.021 7.881-13.504-.213-7.043.724-8.651 2.79-4.79 1.094 2.045.864 7.937-.669 17.123-.59 3.534-.438 3.83 2.483 4.848 1.711.597 3.111 1.17 3.111 1.275 0 .105-.9 1.956-2 4.114-2.389 4.686-2.574 8.343-.463 9.153.846.324 4.138-.14 7.316-1.032 7.015-1.968 11.48-2.12 10.897-.371-.229.687-2.462 1.542-4.962 1.899-7.6 1.087-11.788 4.202-11.788 8.767 0 1.549.929 3.614 2.103 4.678 1.718 1.554 2.022 2.749 1.66 6.519-.392 4.076-.231 4.561 1.37 4.142 2.777-.726 6.668-5.074 7.36-8.223.616-2.803.641-2.812 3.76-1.256 2.89 1.442 3.504 1.423 7.694-.236 2.504-.991 5.791-1.856 7.303-1.921 3.317-.143 3.463-1.232.576-4.305L170.651 128h2.807c1.922 0 3.867 1.125 6.174 3.571l3.368 3.571v-4.688c0-4.114-.477-5.166-3.882-8.572-2.136-2.135-4.836-3.882-6-3.882-2.917 0-2.655-1.655.525-3.321 3.558-1.864 1.626-2.965-5.204-2.965-3.611 0-6.442.68-8.921 2.143-4.834 2.852-5.413 2.701-2.327-.607 3.029-3.247 4.809-6.486 4.809-8.749 0-.896 1.396-2.804 3.101-4.24l3.101-2.609-5.351-1.433c-2.943-.788-5.913-1.46-6.601-1.493-3.962-.189 1.41-4.241 9.051-6.828 3.463-1.172 5.79-1.434 7.378-.83 3.113 1.184 2.935-.199-.499-3.875-3.532-3.781-9.502-5.535-14.229-4.179-1.891.542-3.544.986-3.673.986s.262-1.092.87-2.426c.608-1.335.804-3.629.435-5.099l-.671-2.672-2.334 2.348c-5.266 5.298-9.755 9.005-10.275 8.485-.304-.304.353-2.259 1.461-4.344 1.108-2.086 3.414-6.443 5.125-9.683 2.05-3.881 3.111-7.321 3.111-10.083 0-6.399-.524-6.381-7.409.246l-2.36 2.271-.701-3.737c-.879-4.685-2.765-8.364-6.429-12.543-1.574-1.794-3.073-4.163-3.331-5.263-.383-1.632-.807-1.265-2.308 2m1.221 76.25c-.891 2.063-1.911 5.449-2.268 7.526-.446 2.6-1.001 3.505-1.781 2.905-3.769-2.895-4.283-2.057-2.253 3.673 2.69 7.594 2.953 33.765.391 38.901L123.153 172h13.613l-1.332-3.867c-.733-2.127-1.793-8.351-2.355-13.831-1.169-11.392-.097-20.878 2.944-26.052 1.501-2.556 1.609-3.25.502-3.25-.774 0-1.685.45-2.025 1-.34.55-1.101 1-1.691 1-.71 0-.91-2.53-.591-7.5.265-4.125.393-7.5.284-7.5-.109 0-.927 1.688-1.819 3.75M68.75 234.662c.875.353 1.25 3.307 1.25 9.838 0 6.531-.375 9.485-1.25 9.838-.687.277.55.487 2.75.467 2.2-.02 3.213-.243 2.25-.494-1.223-.32-1.75-1.456-1.75-3.773 0-2.956.356-3.382 3.284-3.932 7.232-1.356 9.94-6.382 5.716-10.606-1.561-1.561-3.263-1.983-7.75-1.921-3.162.043-5.187.306-4.5.583m21.365 9.093c-1.862 5.36-3.887 10.076-4.5 10.48-.613.404.235.734 1.885.734 1.938 0 2.544-.289 1.711-.817-.961-.61-1.031-1.496-.275-3.485.861-2.264 1.607-2.667 4.941-2.667 3.447 0 4.053.36 4.953 2.941.749 2.15.708 3.07-.153 3.421-.647.264.597.516 2.764.559 3.347.067 3.696-.11 2.314-1.171-.895-.687-3.278-5.412-5.296-10.5-2.018-5.088-3.959-9.248-4.314-9.245-.355.003-2.168 4.39-4.03 9.75m16.108-8.505c.883.688 2.994 3.476 4.691 6.196 3.235 5.185 4.197 11.939 1.836 12.892-.687.277.55.487 2.75.467 2.2-.02 3.213-.243 2.25-.494-2.928-.766-2.244-7.271 1.44-13.684 1.754-3.054 3.891-5.743 4.75-5.974.858-.232-.015-.466-1.94-.522-1.975-.057-2.974.234-2.292.667.889.566.545 1.88-1.307 4.985-1.383 2.319-2.688 4.217-2.901 4.217-.213 0-1.518-1.898-2.901-4.217-1.852-3.105-2.196-4.419-1.307-4.985.68-.432-.513-.774-2.733-.783-3.341-.013-3.697.175-2.336 1.235m24.823 8.266c-1.804 5.233-4.015 9.945-4.913 10.469-1.259.736-.832.958 1.867.969 2.193.01 3.019-.29 2.211-.802-.961-.61-1.031-1.496-.275-3.485.861-2.263 1.608-2.667 4.931-2.667 3.362 0 4.007.36 4.555 2.546.352 1.4.374 2.975.05 3.5-.339.548 1.03.905 3.219.838 2.095-.064 3.128-.301 2.296-.528-.836-.227-3.249-4.869-5.398-10.384-2.138-5.484-4.196-9.972-4.575-9.972-.378 0-2.164 4.282-3.968 9.516m16.858-8.596c1.039.657 1.384 3.122 1.325 9.459-.044 4.714-.365 9.032-.713 9.596-.376.608.508 1.019 2.175 1.01 1.857-.01 2.37-.294 1.512-.838-.917-.582-1.21-2.958-1-8.107l.297-7.284 6.5 8.372 6.5 8.372.289-9.965c.186-6.426.719-10.238 1.5-10.735.72-.457-.005-.769-1.789-.769-1.954 0-2.548.287-1.703.822.916.582 1.21 2.951 1 8.072l-.297 7.249-5.942-8.087c-4.763-6.482-6.45-8.084-8.5-8.072-1.882.012-2.187.251-1.154.905m-75.237.747c-.367.366-.667 2.568-.667 4.893 0 4.768 1.425 5.906 5.107 4.08 2.71-1.344 3.738-5.917 1.843-8.2-1.229-1.481-5.099-1.957-6.283-.773m19.484 5.833c-1.534 5.385-1.507 5.5 1.29 5.5 3.395 0 3.681-.973 1.631-5.536L93.29 237.5l-1.139 4m41.631-2.956c-.33.534-.916 2.655-1.303 4.714-.665 3.547-.565 3.742 1.91 3.742 1.837 0 2.598-.519 2.566-1.75-.069-2.678-2.495-7.804-3.173-6.706M183.8 247.2c1.853 1.853 1.491 6.569-.55 7.161-1.011.294-.694.43.75.324 1.99-.147 2.564-.797 2.812-3.185.172-1.65 1.045-3.562 1.941-4.25 1.388-1.065 1.053-1.25-2.262-1.25-3.026 0-3.624.267-2.691 1.2" fill="#1976D2" fill-rule="evenodd"/><path fill-opacity=".481" d="M24.118 46.25c.065 25.608.463 44.206.892 41.669C29.848 59.338 46.561 33.4 70.332 17.583 83.327 8.937 94.899 4.286 110.45 1.461 116.66.333 111.93.17 70.75.09L24 0l.118 46.25M145.666 1.481c45.094 8.182 80.021 45.185 85.295 90.366.459 3.938.83-13.446.908-42.597L232 0l-46.75.09c-41.545.08-45.952.235-39.584 1.391M115.5 4.607C82.124 9.511 53.975 29.408 38.934 58.728 10.926 113.327 39.522 180.814 98.5 199.3c27.546 8.634 59.995 4.028 84.192-11.952 8.414-5.556 21.334-18.301 27.296-26.924 20.752-30.02 23.376-67.762 7.016-100.924-9.84-19.945-25.039-34.99-45.504-45.046-14.172-6.963-24.382-9.466-40.5-9.929-6.875-.198-13.85-.161-15.5.082M129.508 38.5c-1.01 2.2-2.1 7.078-2.422 10.839l-.586 6.839-2.424-2.589c-1.334-1.424-2.743-2.589-3.132-2.589-1.14 0-2.944 8.468-2.944 13.821 0 2.714.671 6.54 1.49 8.501l1.49 3.566-6.24-2.984c-3.432-1.641-7.091-3.46-8.131-4.041-1.753-.979-1.855-.74-1.4 3.291l.492 4.346-4.848-.346c-3.803-.272-5.783.201-9.18 2.192-2.383 1.396-4.914 3.24-5.625 4.096-1.126 1.357-.859 1.563 2.08 1.593 1.854.02 4.497.679 5.872 1.465s3.561 1.445 4.857 1.465c1.851.027 2.2.411 1.627 1.785-2.433 5.833-2.736 7.142-2.047 8.853.716 1.779.818 1.756 1.639-.375 1.133-2.939 3.431-3.774 6.518-2.367 2.372 1.081 2.408 1.235.936 4.081-.842 1.627-1.53 3.881-1.53 5.008 0 2.503.283 2.505-5.486-.047-3.51-1.553-5.812-1.934-8.877-1.47-6.423.971-7.524 2.028-4.587 4.406l2.442 1.978-3.996.739c-3.198.592-5.339 2.144-10.72 7.771-7.424 7.762-7.495 8.778-.758 10.797 3.725 1.115 6.099.67 14.457-2.711 1.844-.747 1.828-.613-.25 2.029-1.432 1.819-2.225 4.211-2.225 6.709v3.881l2.75-2.995c2.429-2.645 3.612-3.068 10.133-3.624l7.382-.63-1.632 2.331c-.909 1.297-1.633 4.279-1.633 6.724 0 4.325.034 4.37 2.25 2.916 2.236-1.467 2.248-1.447 1.912 3.253-.247 3.459.274 5.907 1.937 9.111l2.274 4.382.836-4.064c.913-4.443 6.678-12.288 6.75-9.186.076 3.275 1.96 1.765 3.106-2.49 1.534-5.699.476-12.373-2.688-16.937-2.575-3.716-10.976-8.823-14.514-8.823-.96 0-2.023-.45-2.363-1-1.215-1.966 5.622-.972 10.573 1.537l5.007 2.537 3.096-3.096c2.959-2.959 3.069-3.361 2.476-9.037-.613-5.864-.588-5.941 1.929-5.941 6.098 0 9.714-5.152 9.38-13.365-.304-7.463.022-8.526 1.575-5.135 1.856 4.054 1.791 7.788-.252 14.268-1.658 5.261-1.652 5.49.191 6.838 1.049.766 2.773 1.394 3.831 1.394 1.781 0 1.812.172.407 2.315-.834 1.274-1.976 3.977-2.536 6.007-1.65 5.974 2.084 7.951 8.823 4.671 2.716-1.322 8.475-1.976 9.833-1.116.878.556-.323 1.063-3.525 1.488-5.777.766-12.041 4.721-12.9 8.145-.451 1.798.104 3.31 2.075 5.652 2.335 2.775 2.605 3.768 2.042 7.518-.516 3.444-.347 4.32.837 4.32 2.5 0 7.453-4.882 8.144-8.027.661-3.008 1.864-3.801 2.994-1.973.958 1.55 5.94 1.185 11.213-.822 2.633-1.002 5.574-1.644 6.537-1.427 2.338.528 2.217-1.284-.25-3.751-4.534-4.534-.204-4.083 4.878.509 3.568 3.224 3.926 3.347 4.403 1.524.763-2.919-.868-9.065-2.96-11.152-1.001-.999-3.621-2.693-5.821-3.764l-4-1.947 2.75-.693c3.229-.815 3.51-2 .816-3.442-3.08-1.648-9.31-1.205-13.566.965-5.171 2.636-5.223 2.587-1.604-1.535 1.707-1.944 3.104-4.442 3.104-5.551s1.688-3.566 3.75-5.46c3.167-2.909 3.433-3.445 1.712-3.449-1.122-.003-4.438-.85-7.371-1.883l-5.333-1.878 6.612-3.255c5.264-2.591 7.426-3.146 10.604-2.719 3.606.483 3.899.361 3.032-1.26-3.017-5.636-11.754-9.299-17.242-7.227-2.985 1.127-3.048.882-1.105-4.312.212-.565-.198-1.826-.911-2.801-1.195-1.634-1.728-1.377-6.772 3.264-3.012 2.77-5.628 4.588-5.813 4.04-.185-.547 1.727-4.464 4.25-8.703 4.132-6.943 4.587-8.325 4.587-13.93 0-3.423-.45-6.501-1-6.841-.55-.34-1 .008-1 .774 0 .765-1.8 2.838-4 4.606-3.687 2.963-4 3.051-4 1.135 0-3.324-2.672-8.813-6.42-13.193-1.909-2.23-3.643-5.015-3.854-6.189-.318-1.777-.688-1.466-2.218 1.867m2.656 73.803c-1.838 2.214-4.164 8.451-4.164 11.165 0 2.979-.163 3.016-4.161.949-1.683-.871-2.875-1.208-2.647-.75 3.9 7.852 4.156 9.181 4.592 23.837.406 13.666-.034 18.246-2.283 23.746-.644 1.576.041 1.75 6.892 1.75 4.184 0 7.607-.241 7.607-.535 0-.295-.635-1.532-1.412-2.75-3.324-5.213-4.74-29.738-2.139-37.031.748-2.099 2.151-4.689 3.116-5.756 2.259-2.496 1.164-3.581-2.108-2.09-1.403.639-2.755 1.162-3.004 1.162-.766 0-.456-6.28.516-10.472 1.03-4.446.84-5.208-.805-3.225M231 116.372c0 6.124-4.903 22.836-9.43 32.142-13.634 28.027-37.749 47.866-68.186 56.095-8.452 2.286-11.984 2.686-24.384 2.764-19.033.12-31.245-2.543-46.5-10.14-14.281-7.112-27.609-18.036-37.196-30.49-10.376-13.478-18.416-33.069-20.619-50.243-.212-1.65-.453 29.063-.535 68.25L24 256h21.071c16.929 0 21.353-.281 22.5-1.429 1.907-1.906 2.067-19.507.179-19.696-.687-.069.775-.452 3.25-.851 8.533-1.375 13.843 2.037 12.307 7.909-.616 2.356-5.033 5.067-8.257 5.067-1.676 0-2.05.638-2.05 3.5 0 2.444.452 3.5 1.5 3.5.825 0 1.5.45 1.5 1 0 1.706 6.963 1.117 8.879-.75.988-.963 3.32-6.141 5.183-11.508 1.863-5.368 3.799-9.622 4.302-9.454.503.168 2.727 4.897 4.94 10.509 2.42 6.134 4.582 10.203 5.42 10.203.767 0 1.116.45.776 1-.967 1.565 4.461 1.182 6.071-.429 3.385-3.384-.243-15.127-5.898-19.088-1.993-1.395-1.824-1.482 2.854-1.468 3.024.01 4.46.341 3.665.845-1.036.657-.859 1.59.849 4.485 1.186 2.01 2.3 3.655 2.476 3.655.176 0 1.322-1.621 2.546-3.602 1.839-2.975 1.983-3.755.831-4.484-.951-.603-.203-.888 2.356-.899 3.724-.015 3.736-.001 1.791 1.944C115.69 243.31 115.03 256 122 256c3.332 0 4.728-2.094 8.621-12.931 1.989-5.538 3.963-10.069 4.388-10.069.424 0 2.642 4.613 4.929 10.25 4.559 11.237 5.932 13.185 7.849 11.133 1.696-1.816 1.664-19.035-.037-19.721-.687-.277.1-.528 1.75-.557 2.475-.044 3.572.774 6.27 4.671 1.798 2.598 4.295 5.968 5.548 7.487l2.278 2.764-.422-6.764c-.233-3.719-.929-7.094-1.548-7.498-.619-.404.674-.706 2.874-.671 2.2.035 3.438.291 2.75.568-.888.358-1.25 3.524-1.25 10.921V256l5.25-.022c5.132-.022 5.202-.061 3.117-1.75-3.076-2.492-4.367-5.519-4.367-10.239 0-7.163 6.707-12.017 14.568-10.542 3.112.584 3.515.992 3.243 3.283-.38 3.192-2.811 4.336-2.811 1.322 0-4.474-7.047-3.795-9.482.913-3.462 6.695-.381 15.035 5.555 15.035 2.539 0 2.927-.371 2.927-2.8 0-1.54-.54-3.34-1.2-4-.933-.933-.222-1.2 3.2-1.2s4.133.267 3.2 1.2c-.66.66-1.2 2.475-1.2 4.032 0 2.003-.659 3.097-2.25 3.737-1.439.578 6.488.927 22 .968L232 256v-71.5c0-39.325-.225-71.5-.5-71.5s-.5 1.517-.5 3.372M73 240c0 4.272.281 5 1.929 5 2.414 0 5.071-2.576 5.071-4.916 0-2.17-3.054-5.084-5.329-5.084-1.339 0-1.671.995-1.671 5m19.276 2.451c-1.044 3.402-.987 3.549 1.385 3.549 2.103 0 2.371-.338 1.785-2.25-1.416-4.631-2.065-4.897-3.17-1.299m40.892-.504c-1.337 3.835-1.125 4.349 1.596 3.884 1.754-.3 1.825-.658.759-3.796l-1.178-3.464-1.177 3.376m17.832 4.41c0 8.53 1.118 9.861 7.937 9.446l4.974-.303-5.028-6.5c-8.146-10.53-7.883-10.441-7.883-2.643m-61.467 4.368c-.415 1.652-.258 2.867.398 3.085.595.199.827.772.516 1.275-.929 1.504 5.577 1.034 7.126-.515 1.07-1.07 1.184-2.078.453-4-.786-2.068-1.644-2.57-4.393-2.57-2.885 0-3.522.424-4.1 2.725m40.699.039c-1.164 3.34.391 5.236 4.297 5.236 3.962 0 5.762-2.267 4.318-5.436-.904-1.984-1.901-2.564-4.41-2.564-2.641 0-3.42.512-4.205 2.764" fill="#1976D2" fill-rule="evenodd"/><path fill-opacity=".45" d="M117.5 5.019C76.637 8.578 40.886 40.217 30.861 81.693c-2.419 10.006-2.851 30.009-.866 40.066 4.21 21.331 14.445 39.921 30.069 54.619 13.78 12.963 30.878 21.736 49.219 25.252 11.463 2.197 33.198 1.413 44.217-1.595 34.272-9.357 61.515-36.639 70.649-70.751 2.692-10.054 3.55-28.729 1.849-40.239-5.296-35.832-30.35-66.415-64.368-78.574-14.507-5.185-28.023-6.855-44.13-5.452M129.015 38.5c-1.361 3.038-2.294 7.217-2.378 10.649-.124 5.116-.307 5.557-1.943 4.684-.994-.53-2.055-1.609-2.357-2.398-.923-2.404-1.967-1.622-3.095 2.315-2.589 9.038-2.53 13.681.26 20.51.596 1.456-.36 1.249-5.543-1.202-3.444-1.629-6.734-3.433-7.311-4.01-2.099-2.099-2.897-.951-2.401 3.452l.507 4.5h-5.227c-4.195 0-6.027.579-9.277 2.934-5.426 3.931-5.992 5.058-2.559 5.1 1.545.019 4.609.903 6.809 1.966s4.588 1.947 5.307 1.966c1.004.026.946.549-.25 2.257-1.688 2.409-2.141 8.777-.624 8.777.513 0 1.205-.858 1.538-1.908.794-2.502 3.182-3.348 5.679-2.012 1.345.72 1.779 1.624 1.319 2.747-.377.92-1.104 3.119-1.614 4.886l-.929 3.213-3.213-1.959c-3.684-2.246-10.666-2.537-15.135-.63l-2.922 1.247 2.807 2.208L89.27 110l-2.385.005c-3.729.008-9.25 3.963-14.388 10.307-2.589 3.196-4.547 5.933-4.352 6.081 5.264 4.003 10.126 4.645 16.143 2.131l3.532-1.476-1.535 3.909c-.932 2.373-1.266 4.982-.85 6.641l.686 2.732 1.908-3.138c2.015-3.313 3.383-3.843 11.547-4.473l5.076-.392-1.282 3.587c-2.248 6.288-1.188 10.838 1.924 8.258.911-.755 1.223.164 1.276 3.763.07 4.806 2.8 11.022 5.189 11.818.816.272 1.241-.687 1.241-2.802 0-3.167 3.391-9.951 4.975-9.951.446 0 1.138.787 1.538 1.75 1.176 2.833 3.389-3.299 3.442-9.54.082-9.64-5.101-16.168-16.068-20.238l-5.387-1.999 4.199.517c2.31.285 5.781 1.451 7.715 2.592 6.569 3.875 11.013-.195 10.43-9.554l-.344-5.534 3.256-.609c1.852-.347 4.331-1.888 5.75-3.574 2.147-2.552 2.496-3.962 2.509-10.138.011-5 .309-6.719.985-5.673 1.338 2.07 1.241 10.07-.187 15.408-1.324 4.953-.174 7.592 3.309 7.592 2.343 0 2.337.181-.181 5.117-4.115 8.064-1.243 11.199 7.762 8.473 3.238-.98 6.992-1.576 8.342-1.323 2.006.376 1.853.486-.835.597-3.526.146-9.984 3.053-12.606 5.675-2.044 2.044-2.072 6.828-.049 8.506 2.679 2.224 3.348 4.45 2.487 8.27-.67 2.97-.542 3.685.659 3.685 4.067 0 9.299-5.391 9.299-9.582 0-1.162.425-1.261 1.934-.453 2.839 1.519 8.303 1.262 11.959-.562 1.863-.929 4.226-1.339 5.654-.981 2.965.745 3.394-1.725.798-4.593-1.545-1.707-1.536-1.829.132-1.829.983 0 3.289 1.593 5.126 3.54l3.339 3.541.639-2.547c1.549-6.173-2.532-13.205-9.354-16.117l-2.727-1.164 2.75-.735c1.512-.404 2.75-1.12 2.75-1.591 0-3.143-12.923-4.07-16.994-1.219l-2.439 1.709 2.15-3.02c1.183-1.66 2.476-4.318 2.874-5.905.399-1.588 2.004-3.963 3.567-5.278 2.921-2.458 3.815-4.525 1.589-3.67-.69.264-3.692-.378-6.672-1.428l-5.419-1.908 4.922-2.461c6.515-3.257 9.746-3.955 12.853-2.773 3.033 1.153 3.323.106.966-3.492-2.832-4.322-7.865-6.713-13.316-6.327l-4.876.345.489-3.012c.35-2.148-.062-3.511-1.438-4.756-1.85-1.674-1.975-1.643-3.071.761-.628 1.379-1.501 2.507-1.941 2.507-.439 0-2.28 1.353-4.091 3.007-2.871 2.622-3.205 2.733-2.611.862.374-1.18 2.378-4.772 4.452-7.981 3.95-6.112 5.589-12.622 4.413-17.533-1.091-4.556-1.598-4.807-2.996-1.481-.723 1.719-1.863 3.126-2.534 3.126-.671 0-2.042.745-3.048 1.655-1.719 1.555-1.829 1.523-1.829-.532 0-3.354-2.411-8.383-5.954-12.418-1.762-2.007-3.561-4.899-3.998-6.427-.785-2.749-.817-2.726-3.033 2.222m1.8 75.25c-.889 1.513-2.138 4.7-2.777 7.084-.836 3.124-1.562 4.17-2.599 3.75-4.921-1.996-4.813-1.996-3.978-.008 3.769 8.97 3.948 10.141 3.962 25.924.012 13.328-.277 16.543-1.73 19.25l-1.744 3.25h16.8l-1.856-3.752c-2.314-4.677-4.21-21.664-3.32-29.748.664-6.031 2.356-10.504 5.203-13.75 1.41-1.608 1.335-1.75-.921-1.75-1.35 0-3.051.563-3.78 1.25-1.097 1.034-1.231-.089-.777-6.5.301-4.263.229-7.75-.16-7.75s-1.434 1.237-2.323 2.75" fill="#1976D2" fill-rule="evenodd"/></svg>